<svg width="29" height="27" viewBox="0 0 29 27" fill="none" xmlns="http://www.w3.org/2000/svg">
<path d="M20.0906 14.8889H17.5207L4.30412 14.8889C3.4278 14.8889 2.58739 15.2181 1.96774 15.8041C1.34809 16.3902 0.999977 17.1851 0.999977 18.0139L0.999977 23.2222V25.3055L20.0906 14.8889Z" stroke="white" stroke-width="1.5" stroke-linecap="round" stroke-linejoin="round"/>
<path d="M20.0906 12.1111H17.1536L4.30413 12.1111C3.42782 12.1111 2.5874 11.7819 1.96775 11.1959C1.3481 10.6098 0.999989 9.81495 0.999989 8.98615L0.999989 3.77781V1.69448L20.0906 12.1111Z" stroke="white" stroke-width="1.5" stroke-linecap="round" stroke-linejoin="round"/>
<path d="M20.0906 2.38889C21.3637 2.98624 22.5382 3.7793 23.5621 4.74765C26.0407 7.09185 27.4331 10.2713 27.4331 13.5865C27.4331 16.9017 26.0407 20.0811 23.5621 22.4253C22.5382 23.3937 21.3637 24.1867 20.0906 24.7841M20.0906 2.38889L24.4961 1M20.0906 2.38889V6.55556M20.0906 24.7841L20.0906 20.4444M20.0906 24.7841L24.4961 26" stroke="white" stroke-width="1.5" stroke-linecap="round" stroke-linejoin="round"/>
</svg>
