<svg width="27" height="31" viewBox="0 0 27 31" fill="none" xmlns="http://www.w3.org/2000/svg">
<path d="M15.5834 3.77776C17.2945 3.77776 18.9904 3.84165 20.6695 3.96943C21.9999 4.0677 23.2507 4.64067 24.1939 5.58393C25.1372 6.5272 25.7102 7.77796 25.8084 9.10831C25.9362 10.8013 26 11.8034 26 13.4999M15.5834 3.77776L18.3612 1.00002M15.5834 3.77776L18.3612 6.55549" stroke="white" stroke-width="1.5" stroke-linecap="round" stroke-linejoin="round"/>
<path d="M1 13.8471C1 13.0183 1.32924 12.2234 1.91529 11.6374C2.50134 11.0513 3.2962 10.7221 4.125 10.7221H16.625C17.4538 10.7221 18.2487 11.0513 18.8347 11.6374C19.4208 12.2234 19.75 13.0183 19.75 13.8471V26.3471C19.75 27.1759 19.4208 27.9708 18.8347 28.5568C18.2487 29.1429 17.4538 29.4721 16.625 29.4721H4.125C3.2962 29.4721 2.50134 29.1429 1.91529 28.5568C1.32924 27.9708 1 27.1759 1 26.3471V13.8471Z" stroke="white" stroke-width="1.5" stroke-linecap="round" stroke-linejoin="round"/>
</svg>
