<svg width="23" height="27" viewBox="0 0 23 27" fill="none" xmlns="http://www.w3.org/2000/svg">
<path d="M15.0894 9.65428L14.6458 21.1924M8.50749 21.1924L8.06391 9.65428M20.8431 5.53901C21.2815 5.60567 21.7174 5.67618 22.1533 5.75182M20.8431 5.53901L19.4739 23.3373C19.418 24.0619 19.0906 24.7387 18.5572 25.2324C18.0239 25.7261 17.3238 26.0002 16.597 26H6.55626C5.82948 26.0002 5.12941 25.7261 4.59603 25.2324C4.06266 24.7387 3.7353 24.0619 3.67942 23.3373L2.31022 5.53901M20.8431 5.53901C19.3634 5.31532 17.8762 5.14555 16.3842 5.03005M2.31022 5.53901C1.87177 5.60439 1.43589 5.6749 1 5.75054M2.31022 5.53901C3.78984 5.31532 5.27711 5.14555 6.76908 5.03005M16.3842 5.03005V3.85572C16.3842 2.34294 15.2176 1.08144 13.7048 1.034C12.2864 0.988666 10.8669 0.988666 9.44849 1.034C7.93571 1.08144 6.76908 2.34422 6.76908 3.85572V5.03005M16.3842 5.03005C13.1839 4.78272 9.96935 4.78272 6.76908 5.03005" stroke="white" stroke-width="1.5" stroke-linecap="round" stroke-linejoin="round"/>
</svg>
