<svg width="27" height="27" viewBox="0 0 27 27" fill="none" xmlns="http://www.w3.org/2000/svg">
<path d="M10.6962 18.5051L9.65385 22.1538L8.61154 18.5051C8.34214 17.5626 7.83705 16.7043 7.14392 16.0112C6.45079 15.3181 5.59249 14.813 4.65 14.5436L1 13.5L4.64872 12.4577C5.59121 12.1883 6.44951 11.6832 7.14264 10.9901C7.83577 10.2969 8.34086 9.43864 8.61026 8.49615L9.65385 4.84615L10.6962 8.49487C10.9655 9.43736 11.4706 10.2957 12.1638 10.9888C12.8569 11.6819 13.7152 12.187 14.6577 12.4564L18.3077 13.5L14.659 14.5423C13.7165 14.8117 12.8582 15.3168 12.1651 16.0099C11.4719 16.7031 10.9668 17.5614 10.6974 18.5038L10.6962 18.5051ZM21.5244 9.28846L21.1923 10.6154L20.8603 9.28846C20.6702 8.52768 20.277 7.83285 19.7226 7.27824C19.1682 6.72364 18.4735 6.33012 17.7128 6.13974L16.3846 5.80769L17.7128 5.47564C18.4735 5.28527 19.1682 4.89174 19.7226 4.33714C20.277 3.78254 20.6702 3.08771 20.8603 2.32692L21.1923 1L21.5244 2.32692C21.7145 3.08787 22.108 3.78281 22.6626 4.33742C23.2172 4.89204 23.9121 5.28547 24.6731 5.47564L26 5.80769L24.6731 6.13974C23.9121 6.32991 23.2172 6.72335 22.6626 7.27796C22.108 7.83258 21.7145 8.52752 21.5244 9.28846ZM19.7744 24.4833L19.2692 26L18.7641 24.4833C18.6225 24.0585 18.3839 23.6725 18.0673 23.3558C17.7506 23.0392 17.3646 22.8006 16.9397 22.659L15.4231 22.1538L16.9397 21.6487C17.3646 21.5071 17.7506 21.2685 18.0673 20.9519C18.3839 20.6352 18.6225 20.2492 18.7641 19.8244L19.2692 18.3077L19.7744 19.8244C19.916 20.2492 20.1546 20.6352 20.4712 20.9519C20.7879 21.2685 21.1739 21.5071 21.5987 21.6487L23.1154 22.1538L21.5987 22.659C21.1739 22.8006 20.7879 23.0392 20.4712 23.3558C20.1546 23.6725 19.916 24.0585 19.7744 24.4833Z" stroke="white" stroke-width="1.5" stroke-linecap="round" stroke-linejoin="round"/>
</svg>
