<svg width="105" height="105" viewBox="0 0 105 105" fill="none" xmlns="http://www.w3.org/2000/svg">
<rect width="105" height="105" rx="20" fill="#4E5558"/>
<path d="M34 56.8897L46.7896 44.1001C47.3076 43.5822 47.9225 43.1713 48.5992 42.891C49.276 42.6106 50.0013 42.4664 50.7338 42.4664C51.4664 42.4664 52.1917 42.6106 52.8684 42.891C53.5452 43.1713 54.1601 43.5822 54.6781 44.1001L67.4677 56.8897M63.7491 53.1711L67.2421 49.6781C67.7601 49.1601 68.375 48.7492 69.0517 48.4689C69.7285 48.1886 70.4538 48.0443 71.1863 48.0443C71.9188 48.0443 72.6442 48.1886 73.3209 48.4689C73.9977 48.7492 74.6126 49.1601 75.1305 49.6781L82.3422 56.8897M37.7186 66.1863H78.6236C79.6098 66.1863 80.5557 65.7945 81.2531 65.0972C81.9504 64.3998 82.3422 63.4539 82.3422 62.4677V32.7186C82.3422 31.7324 81.9504 30.7865 81.2531 30.0892C80.5557 29.3918 79.6098 29 78.6236 29H37.7186C36.7324 29 35.7865 29.3918 35.0892 30.0892C34.3918 30.7865 34 31.7324 34 32.7186V62.4677C34 63.4539 34.3918 64.3998 35.0892 65.0972C35.7865 65.7945 36.7324 66.1863 37.7186 66.1863ZM63.7491 38.2966H63.7689V38.3164H63.7491V38.2966ZM64.6787 38.2966C64.6787 38.5431 64.5808 38.7796 64.4064 38.9539C64.2321 39.1283 63.9956 39.2262 63.7491 39.2262C63.5025 39.2262 63.266 39.1283 63.0917 38.9539C62.9173 38.7796 62.8194 38.5431 62.8194 38.2966C62.8194 38.05 62.9173 37.8136 63.0917 37.6392C63.266 37.4649 63.5025 37.3669 63.7491 37.3669C63.9956 37.3669 64.2321 37.4649 64.4064 37.6392C64.5808 37.8136 64.6787 38.05 64.6787 38.2966Z" stroke="white" stroke-width="3" stroke-linecap="round" stroke-linejoin="round"/>
<path d="M62.7992 53.7123L63.5976 54.3655L64.4933 53.8537L72.1133 49.4994L80.7249 59.1873L79.873 63.4468H36.5102L35.6065 58.0243L50.2148 43.416L62.7992 53.7123Z" fill="white" stroke="white" stroke-width="3"/>
<mask id="mask0_125_2" style="mask-type:alpha" maskUnits="userSpaceOnUse" x="22" y="30" width="61" height="54">
<rect x="33.3032" y="29.4373" width="52.0608" height="42.1445" rx="3" transform="rotate(15.5565 33.3032 29.4373)" fill="#72ACC5"/>
</mask>
<g mask="url(#mask0_125_2)">
<path d="M28.0001 63.5V37.1752C28.0001 33.8638 25.1492 31.2715 21.8527 31.5855C19.2932 31.8292 17.2262 33.7802 16.8353 36.3214L12.6014 63.8418C11.9584 68.0213 14.3118 72.0848 18.2571 73.607L68.0498 92.8184C72.0822 94.3742 76.6512 92.8438 78.9331 89.1731L84.0649 80.9175C85.474 78.6507 85.0554 75.6998 83.0715 73.9142C82.0599 73.0038 80.7471 72.5 79.3861 72.5H37.0001C32.0296 72.5 28.0001 68.4705 28.0001 63.5Z" fill="#72ACC5" stroke="#72ACC5" stroke-width="2"/>
</g>
</svg>
