<svg width="27" height="29" viewBox="0 0 27 29" fill="none" xmlns="http://www.w3.org/2000/svg">
<path d="M14.8889 8.34253V10.9124V24.129C14.8889 25.0053 15.2181 25.8457 15.8041 26.4654C16.3902 27.085 17.1851 27.4331 18.0139 27.4331H23.2222H25.3055L14.8889 8.34253Z" stroke="white" stroke-width="1.5" stroke-linecap="round" stroke-linejoin="round"/>
<path d="M12.1111 8.34253V11.2795L12.1111 24.129C12.1111 25.0053 11.7819 25.8457 11.1959 26.4654C10.6098 27.085 9.81495 27.4331 8.98615 27.4331H3.77781H1.69448L12.1111 8.34253Z" stroke="white" stroke-width="1.5" stroke-linecap="round" stroke-linejoin="round"/>
<path d="M2.38889 8.34253C2.98624 7.06943 3.7793 5.89489 4.74765 4.87104C7.09185 2.39246 10.2713 1 13.5865 1C16.9017 1 20.0811 2.39246 22.4253 4.87104C23.3937 5.89489 24.1867 7.06943 24.7841 8.34253M2.38889 8.34253L1 3.93701M2.38889 8.34253H6.55556M24.7841 8.34253H20.4444M24.7841 8.34253L26 3.93701" stroke="white" stroke-width="1.5" stroke-linecap="round" stroke-linejoin="round"/>
</svg>
