<svg width="27" height="28" viewBox="0 0 27 28" fill="none" xmlns="http://www.w3.org/2000/svg">
<path d="M6.68182 1.67773H4.40909C3.50494 1.67773 2.63783 2.03691 1.9985 2.67623C1.35917 3.31556 1 4.18268 1 5.08683V7.35955M20.3182 1.67773H22.5909C23.4951 1.67773 24.3622 2.03691 25.0015 2.67623C25.6408 3.31556 26 4.18268 26 5.08683V7.35955M26 20.9959V23.2686C26 24.1728 25.6408 25.0399 25.0015 25.6792C24.3622 26.3186 23.4951 26.6777 22.5909 26.6777H20.3182M6.68182 26.6777H4.40909C3.50494 26.6777 2.63783 26.3186 1.9985 25.6792C1.35917 25.0399 1 24.1728 1 23.2686V20.9959" stroke="white" stroke-width="1.5" stroke-linecap="round" stroke-linejoin="round"/>
</svg>
