<svg width="27" height="27" viewBox="0 0 27 27" fill="none" xmlns="http://www.w3.org/2000/svg">
<path d="M20.3182 7.81818V4.40909C20.3182 3.50494 19.959 2.63783 19.3197 1.9985C18.6804 1.35917 17.8132 1 16.9091 1H4.40909C3.50494 1 2.63783 1.35917 1.9985 1.9985C1.35917 2.63783 1 3.50494 1 4.40909V16.9091C1 17.8132 1.35917 18.6804 1.9985 19.3197C2.63783 19.959 3.50494 20.3182 4.40909 20.3182H7.81818M20.3182 7.81818H22.5909C23.4951 7.81818 24.3622 8.17735 25.0015 8.81668C25.6408 9.45601 26 10.3231 26 11.2273V22.5909C26 23.4951 25.6408 24.3622 25.0015 25.0015C24.3622 25.6408 23.4951 26 22.5909 26H11.2273C10.3231 26 9.45601 25.6408 8.81668 25.0015C8.17735 24.3622 7.81818 23.4951 7.81818 22.5909V20.3182M20.3182 7.81818H11.2273C10.3231 7.81818 9.45601 8.17735 8.81668 8.81668C8.17735 9.45601 7.81818 10.3231 7.81818 11.2273V20.3182" stroke="white" stroke-width="1.5" stroke-linecap="round" stroke-linejoin="round"/>
</svg>
