<svg width="52" height="52" viewBox="0 0 52 52" fill="none" xmlns="http://www.w3.org/2000/svg">
<path d="M28.7778 14.8889V19.75V44.75C28.7778 46.4076 29.4363 47.9974 30.6084 49.1695C31.7805 50.3416 33.3702 51 35.0278 51H45.4445H49.6112L28.7778 14.8889Z" fill="#72ACC5" stroke="#72ACC5" stroke-width="2" stroke-linecap="round" stroke-linejoin="round"/>
<path d="M23.2221 14.8889V20.4445L23.2222 44.75C23.2222 46.4076 22.5637 47.9973 21.3916 49.1694C20.2195 50.3415 18.6298 51 16.9722 51H6.5555H2.38883L23.2221 14.8889Z" stroke="white" stroke-width="2" stroke-linecap="round" stroke-linejoin="round"/>
<path d="M3.77778 14.8889C4.97249 12.4807 6.55861 10.259 8.49529 8.32233C13.1837 3.63392 19.5425 1 26.173 1C32.8034 1 39.1622 3.63392 43.8506 8.32233C45.7873 10.259 47.3734 12.4807 48.5681 14.8889M3.77778 14.8889L1 6.55556M3.77778 14.8889H12.1111M48.5681 14.8889H39.8889M48.5681 14.8889L51 6.55556" stroke="white" stroke-width="2" stroke-linecap="round" stroke-linejoin="round"/>
</svg>
